<svg width="85" height="87" fill="none" xmlns="http://www.w3.org/2000/svg"><path d="M59.229.515c-5.322 0-10.583 1.766-13.79 5.493-12.592 14.639 4.077 36.007-25.348 51.174 31.793-11.937 21.39-30.56 27.4-45.454C49.532 5.073 55.408.878 60.789.56c-.525-.03-1.05-.045-1.56-.045Z" fill="#E31031"/><path d="M41.727 5.151c-2.237 1.146-6.952 3.543-10.075 9.679-6.156 12.106 5.03 30.648-18.258 44.412 34.01-15.407 10.84-39.678 28.333-54.09Z" fill="#E31031"/><path d="M26.878 0C13.735 0 3.091 10.454 3.091 23.336c0 6.562 2.755 12.49 7.211 16.73l2.71 18.146c1.1-.588 2.274-1.539 3.282-2.459 15.447-14.194.633-32.477 14.574-47.803 2.303-2.52 5.766-3.998 7.768-4.345C34.993 1.373 31.485 0 26.878 0ZM63.32 1.545c-4.28 0-8.814 6.681-10.32 10.621-5.092 13.377 2.034 31.608-23.637 42.558 5.288-1.618 9.325-2.726 16.165-3.13a66.458 66.458 0 0 1 3.736-.12c14.733 0 18.484 5.902 19.479 8.284h.105l2.862-19.43c4.685-4.224 7.623-10.276 7.623-16.972 0-10.021-6.538-18.56-15.682-21.796-.106 0-.226-.015-.332-.015Z" fill="#E31031"/><path d="M16.534 64.91H3.882C3.806 65.342.122 85.932 0 86.545h12.195c4.963 0 8.114-2.197 8.647-6.022.03-.27.061-.523.061-.792 0-1.031-.304-1.957-.868-2.645-.624-.762-1.522-1.315-2.588-1.569l-.472-.12-.03-.104.365-.075c2.664-.672 4.4-2.66 4.78-5.468.046-.314.061-.613.061-.897 0-1.046-.289-1.883-.867-2.495-.883-.957-2.482-1.45-4.75-1.45Zm-8.07 8.755.062-.314.807-4.617h3.227c1.096 0 2.192.09 2.786.733.35.373.472.896.38 1.539-.258 1.823-1.598 2.66-4.247 2.66H8.45h.016Zm-1.659 9.07.061-.314.929-4.945h4.339c.99 0 1.705.239 2.146.717.396.433.564 1.03.457 1.778-.38 2.764-3.075 2.764-4.37 2.764H6.806ZM42.227 64.91H25.095c-.088.467-3.855 20.972-3.973 21.636h17.163c.074-.408.694-3.742.797-4.316-.679 0-10.944.151-10.944.151l.886-4.632h9.394c.074-.407.664-3.696.768-4.255-.65 0-5.258.09-5.258.09H29.85l.857-4.495 10.767.316c.074-.422.665-3.922.768-4.48m9.258-.015h-6.656c-.092.467-4.024 20.972-4.147 21.636h6.687c.995-6.307 2.295-12.705 3.565-18.876 0 0 .444-2.203.566-2.76m21.079 0c-1.68 2.762-6.48 10.16-10.261 15.792.06.242 1.56 5.451 1.665 5.844h1.185c.165-.287 3.78-6.402 3.78-6.402h8.581l.12.543c.42 1.903.84 3.865 1.11 5.843.465 0 5.55-.15 6.226-.15-.195-.71-5.07-21.063-5.19-21.47h-7.231m-1.365 11.172.27-.438 4.26-7.05 1.395 7.503h-5.925v-.015Z" fill="#191616"/><path d="M65.94 64.91h-7.274c-.185.21-9.211 10.335-9.211 10.335l5.597 11.3h7.812l-5.782-11.542s8.073-9.219 8.842-10.094" fill="#191616"/></svg>