<svg width="59" height="18" fill="none" xmlns="http://www.w3.org/2000/svg"><path d="M12.13.764H3.55C3.5 1.109 1 17.512.917 18h8.27c3.367 0 5.504-1.75 5.865-4.797.02-.214.042-.417.042-.631 0-.821-.207-1.56-.589-2.107a3.169 3.169 0 0 0-1.755-1.25l-.32-.095-.02-.083.247-.06c1.807-.536 2.984-2.119 3.242-4.357.03-.25.041-.488.041-.714 0-.833-.196-1.5-.588-1.988-.6-.762-1.683-1.154-3.222-1.154ZM6.658 7.739l.041-.25.548-3.678h2.188c.744 0 1.487.071 1.89.583.237.298.32.714.258 1.226-.175 1.453-1.084 2.12-2.88 2.12H6.647h.01Zm-1.125 7.226.041-.25.63-3.94h2.942c.672 0 1.157.19 1.456.57.269.346.382.822.31 1.417-.258 2.203-2.086 2.203-2.963 2.203H5.533ZM29.556.764h-11.62c-.06.372-2.614 16.707-2.694 17.236h11.64c.05-.325.47-2.98.54-3.438-.46 0-7.422.12-7.422.12l.6-3.69h6.371c.05-.324.451-2.944.521-3.39-.44 0-3.566.073-3.566.073h-2.764l.58-3.582 7.303.253c.05-.337.45-3.126.52-3.57m6.279-.012H31.33C31.267 1.136 28.6 17.47 28.518 18h4.534c.675-5.024 1.557-10.12 2.418-15.037 0 0 .301-1.755.384-2.2m14.295.001c-1.14 2.2-4.395 8.095-6.96 12.581.042.193 1.059 4.342 1.13 4.655h.804c.112-.229 2.564-5.1 2.564-5.1h5.819l.081.433c.285 1.516.57 3.08.753 4.655.315 0 3.764-.12 4.222-.12-.132-.566-3.439-16.78-3.52-17.104h-4.904m-.925 8.9.183-.348 2.889-5.617.946 5.978h-4.018v-.012Z" fill="#191616"/><path d="M45.636.764h-4.933c-.125.168-6.247 8.233-6.247 8.233L38.253 18h5.297l-3.92-9.195S45.103 1.46 45.625.764" fill="#191616"/></svg>